<svg xmlns="http://www.w3.org/2000/svg" viewBox="0 0 209 221.74"><path class="cls-1" d="M198,199.45c-.48-1.69-1.33-3.16-2.57-4.41-10.5-13.03-21.14-25.95-31.93-38.74-10.74-12.73-21.62-25.34-32.64-37.83-4.27-4.84-8.57-9.65-12.88-14.46,.44-.54,.88-1.08,1.32-1.63,5.88-7.26,11.76-14.51,17.64-21.77,7.09-8.75,14.17-17.49,21.26-26.24,6.15-7.59,12.3-15.18,18.45-22.78,2.99-3.69,5.99-7.38,8.98-11.08,.04-.05,.08-.1,.13-.16,1.72-2.13,2.93-4.23,2.93-7.07,0-2.45-1.09-5.38-2.93-7.07-4.04-3.71-10.13-3.89-14.14,0-7.65,7.43-14.46,15.79-21.3,23.95-11.01,13.13-21.79,26.47-32.51,39.83-4.8,5.99-9.58,11.99-14.36,18-17.94-19.6-36.2-38.9-54.82-57.85-6.02-6.12-12.08-12.21-18.17-18.27-3.71-3.69-10.48-3.99-14.14,0-3.82,4.16-3.75,9.98,0,14.14,2.61,2.9,5.22,5.79,7.83,8.69,6.23,6.92,12.47,13.84,18.7,20.76,7.57,8.4,15.13,16.8,22.7,25.2,6.52,7.23,13.03,14.47,19.55,21.7,1.23,1.36,2.45,2.74,3.67,4.11-9.56,12.07-19.11,24.14-28.65,36.22-10.53,13.33-21.05,26.66-31.63,39.96-3.46,4.35-6.95,8.69-10.43,13.03-1.41,1.73-2.82,3.47-4.19,5.23-.1,.12-.19,.24-.29,.36-1.72,2.13-2.93,4.22-2.93,7.07,0,2.45,1.09,5.38,2.93,7.07,1.91,1.75,4.41,3.05,7.07,2.93,2.49-.11,5.43-.91,7.07-2.93,2.73-3.36,5.45-6.73,8.18-10.09,6.54-8.08,13.09-16.16,19.63-24.23,7.89-9.74,15.78-19.47,23.66-29.21,6.84-8.44,13.68-16.89,20.52-25.33,1.13-1.39,2.27-2.78,3.41-4.17,.35,.39,.71,.78,1.06,1.18,6.82,7.57,13.65,15.15,20.47,22.72,8.25,9.16,16.5,18.32,24.76,27.48,7.13,7.91,14.26,15.83,21.39,23.74,3.45,3.83,6.83,7.74,10.35,11.49,.05,.05,.1,.11,.15,.16,3.51,3.9,10.62,3.84,14.14,0,1.75-1.91,3.05-4.41,2.93-7.07-.12-.89-.24-1.77-.36-2.66Z"/></svg>