<?xml version="1.0" encoding="UTF-8"?><svg id="Layer_1" xmlns="http://www.w3.org/2000/svg" viewBox="0 0 209 221.74"><defs><style>.cls-1{fill:#231f20;}</style></defs><path class="cls-1" d="M37.11,196.24c3.1-6.33,6.6-12.45,10.45-18.35,1.9-2.91,3.88-5.76,5.93-8.57,1.04-1.43,2.11-2.84,3.18-4.24,.48-.63-.7,.91-.61,.79,.14-.2,.3-.39,.45-.58,.23-.29,.45-.58,.68-.86,.57-.72,1.14-1.43,1.71-2.15,8.85-10.97,18.64-21.14,28.75-30.95s20.82-19.52,31.27-29.24,20.71-19.54,30.36-30.01,19.21-22.25,27.1-34.61c.93-1.46,1.83-2.92,2.72-4.41,2.78-4.63-.73-11.69-6.48-11.29-19.73,1.4-39.37,4.22-58.69,8.47-3.84,.84-6.44,5.51-5.24,9.23,1.3,4.03,5.12,6.14,9.23,5.24,10.6-2.33,21.29-4.23,32.05-5.68l-1.99,.27c8.19-1.1,16.41-1.94,24.65-2.52l-6.48-11.29c-3.64,6.07-7.63,11.92-11.89,17.57-.26,.34-.52,.69-.78,1.03-.11,.15-.22,.29-.34,.44-.48,.63,.7-.9,.61-.79-.6,.7-1.14,1.46-1.71,2.18-1.11,1.4-2.23,2.78-3.37,4.15-2.24,2.7-4.54,5.36-6.88,7.98-9.48,10.6-19.68,20.52-30.05,30.24-10.42,9.77-21.02,19.33-31.33,29.2-10.19,9.76-20.12,19.82-29.19,30.64-9.34,11.15-17.89,23.03-24.7,35.91-.81,1.52-1.59,3.06-2.34,4.61-.9,1.83-1.31,3.76-.76,5.78,.48,1.74,1.82,3.63,3.45,4.48,3.37,1.78,8.42,1.07,10.26-2.69h0Z"/><path class="cls-1" d="M167.11,31.71c.58,19.9,1.15,39.79,1.73,59.69,.11,3.92,3.37,7.69,7.5,7.5s7.62-3.3,7.5-7.5c-.58-19.9-1.15-39.79-1.73-59.69-.11-3.92-3.37-7.69-7.5-7.5s-7.62,3.3-7.5,7.5h0Z"/></svg>