<?xml version="1.0" encoding="UTF-8"?><svg id="Layer_1" xmlns="http://www.w3.org/2000/svg" viewBox="0 0 209 221.74"><defs><style>.cls-1{fill:#231f20;}</style></defs><path class="cls-1" d="M84.97,74.05c-1.02,9.25-2.04,18.5-3.06,27.75-1,9.1-2.14,18.19-2.91,27.31s-.81,18.48,.43,27.72,3.61,18.4,7.31,27.06c2.26,5.3,6.26,9.42,11.88,11.08,4.99,1.47,10.25,.72,15.27-.12,1.74-.29,3.63-1.98,4.48-3.45,.94-1.61,1.34-3.98,.76-5.78s-1.71-3.57-3.45-4.48c-1.89-1-3.68-1.11-5.78-.76-.77,.13-1.53,.25-2.3,.36l1.99-.27c-2.32,.31-4.65,.47-6.98,.19l1.99,.27c-1.11-.16-2.17-.43-3.21-.85l1.79,.76c-.28-.12-1.77-1.15-1.92-1.09,.19-.08,1.54,1.33,.49,.3-.21-.21-1.15-1.35-.33-.28s.06,.04-.1-.21c-.21-.34-.41-.68-.6-1.04-.38-.71-.71-1.45-1.02-2.19l.76,1.79c-3.18-7.76-5.28-15.97-6.42-24.28l.27,1.99c-1.38-10.45-.91-20.91,.13-31.37,1.07-10.7,2.33-21.39,3.52-32.09,.67-6.11,1.35-12.22,2.02-18.33,.2-1.79-.98-4.09-2.2-5.3-1.3-1.3-3.44-2.28-5.3-2.2s-3.95,.72-5.3,2.2c-1.43,1.55-1.97,3.22-2.2,5.3h0Z"/><path class="cls-1" d="M87.51,22.01c-.07,1.51-.06,3.03,.09,4.54,.21,2.05,.45,4.19,1.13,6.16,.87,2.51,1.98,4.63,3.79,6.6,.82,.9,1.85,1.67,2.88,2.3,.8,.48,1.7,.81,2.56,1.15,.33,.13,.67,.25,1.01,.33,3.33,.78,6.59,.3,9.61-1.3,.35-.18,.67-.4,.99-.64,.78-.58,1.59-1.15,2.27-1.85,.93-.95,1.8-2.06,2.44-3.23s1.22-2.47,1.49-3.78c.38-1.84,.45-3.3,.21-5.1-.41-3.02-1.76-5.62-3.8-7.88-.96-1.06-2.17-1.96-3.38-2.7s-2.58-1.3-3.94-1.71-2.95-.62-4.42-.65-3,.19-4.42,.57c-1.82,.49-3.53,1.83-4.48,3.45s-1.34,3.98-.76,5.78,1.71,3.57,3.45,4.48,3.79,1.3,5.78,.76c.35-.1,.7-.17,1.07-.22l-1.99,.27c.79-.1,1.57-.1,2.36,0l-1.99-.27c.85,.12,1.66,.35,2.45,.68l-1.79-.76c.66,.29,1.29,.65,1.87,1.09l-1.52-1.17c.57,.44,1.07,.93,1.52,1.5l-1.17-1.52c.36,.48,.65,.98,.9,1.52l-.76-1.79c.21,.51,.36,1.03,.45,1.57l-.27-1.99c.07,.55,.07,1.1,0,1.65l.27-1.99c-.09,.61-.25,1.2-.49,1.78l.76-1.79c-.27,.63-.62,1.21-1.04,1.76l1.17-1.52c-.39,.48-.82,.91-1.3,1.3l1.52-1.17c-.49,.37-1,.67-1.56,.91l1.79-.76c-.45,.17-.9,.3-1.37,.37l1.99-.27c-.48,.06-.96,.05-1.44,0l1.99,.27c-.5-.08-.99-.22-1.46-.42l1.79,.76c-.48-.21-.92-.47-1.34-.79l1.52,1.17c-.45-.36-.84-.76-1.19-1.21l1.17,1.52c-.49-.65-.87-1.35-1.19-2.1l.76,1.79c-.53-1.3-.84-2.67-1.04-4.06l.27,1.99c-.23-1.78-.27-3.57-.19-5.35s-.9-4.01-2.2-5.3-3.44-2.28-5.3-2.2-3.95,.72-5.3,2.2-2.1,3.24-2.2,5.3h0Z"/></svg>